<svg width="100" height="100" viewBox="0 0 100 100" xmlns="http://www.w3.org/2000/svg">
  <!-- Batman logo with more detail -->
  <path fill="#FDB913" d="
    M50 15
    C25 15 5 30 5 50
    L20 45 C25 35 35 30 50 30
    C65 30 75 35 80 45
    L95 50 C95 30 75 15 50 15
    Z
    M20 45 C25 55 35 65 50 65
    C65 65 75 55 80 45
    C75 55 65 60 50 60
    C35 60 25 55 20 45
    Z"/>
  <!-- Wings -->
  <path fill="#FDB913" opacity="0.6" d="M5 50 L0 40 L5 45 Z"/>
  <path fill="#FDB913" opacity="0.6" d="M95 50 L100 40 L95 45 Z"/>
</svg> 